<mxfile host="Electron" agent="Mozilla/5.0 (Windows NT 10.0; Win64; x64) AppleWebKit/537.36 (KHTML, like Gecko) draw.io/28.1.2 Chrome/138.0.7204.243 Electron/37.4.0 Safari/537.36" version="28.1.2" pages="4">
  <diagram id="5VcpYKdpE214Eg3TYmcN" name="1 root page">
    <mxGraphModel dx="1042" dy="626" grid="1" gridSize="10" guides="1" tooltips="1" connect="1" arrows="1" fold="1" page="1" pageScale="1" pageWidth="827" pageHeight="1169" math="0" shadow="0">
      <root>
        <mxCell id="0" />
        <mxCell id="1" parent="0" />
        <mxCell id="sBdB1PflQOcZhWk-Nyzg-5" value="" style="edgeStyle=orthogonalEdgeStyle;rounded=0;orthogonalLoop=1;jettySize=auto;html=1;" parent="1" source="sBdB1PflQOcZhWk-Nyzg-1" target="sBdB1PflQOcZhWk-Nyzg-4" edge="1">
          <mxGeometry relative="1" as="geometry" />
        </mxCell>
        <mxCell id="sBdB1PflQOcZhWk-Nyzg-1" value="input email password" style="rounded=0;whiteSpace=wrap;html=1;" parent="1" vertex="1">
          <mxGeometry x="90" y="160" width="120" height="60" as="geometry" />
        </mxCell>
        <mxCell id="sBdB1PflQOcZhWk-Nyzg-9" value="no" style="edgeStyle=orthogonalEdgeStyle;rounded=0;orthogonalLoop=1;jettySize=auto;html=1;" parent="1" source="sBdB1PflQOcZhWk-Nyzg-4" target="sBdB1PflQOcZhWk-Nyzg-8" edge="1">
          <mxGeometry relative="1" as="geometry" />
        </mxCell>
        <mxCell id="sBdB1PflQOcZhWk-Nyzg-13" value="yes" style="edgeStyle=orthogonalEdgeStyle;rounded=0;orthogonalLoop=1;jettySize=auto;html=1;" parent="1" source="sBdB1PflQOcZhWk-Nyzg-4" target="sBdB1PflQOcZhWk-Nyzg-12" edge="1">
          <mxGeometry relative="1" as="geometry" />
        </mxCell>
        <mxCell id="sBdB1PflQOcZhWk-Nyzg-4" value="email password is correct" style="rhombus;whiteSpace=wrap;html=1;rounded=0;" parent="1" vertex="1">
          <mxGeometry x="110" y="290" width="80" height="80" as="geometry" />
        </mxCell>
        <mxCell id="sBdB1PflQOcZhWk-Nyzg-10" style="edgeStyle=orthogonalEdgeStyle;rounded=0;orthogonalLoop=1;jettySize=auto;html=1;" parent="1" source="sBdB1PflQOcZhWk-Nyzg-8" target="sBdB1PflQOcZhWk-Nyzg-1" edge="1">
          <mxGeometry relative="1" as="geometry">
            <Array as="points">
              <mxPoint x="40" y="490.0000000000001" />
              <mxPoint x="40" y="190" />
            </Array>
          </mxGeometry>
        </mxCell>
        <mxCell id="sBdB1PflQOcZhWk-Nyzg-8" value="show message invalid credentials" style="whiteSpace=wrap;html=1;rounded=0;" parent="1" vertex="1">
          <mxGeometry x="90" y="460" width="120" height="60" as="geometry" />
        </mxCell>
        <mxCell id="sBdB1PflQOcZhWk-Nyzg-17" value="" style="edgeStyle=orthogonalEdgeStyle;rounded=0;orthogonalLoop=1;jettySize=auto;html=1;" parent="1" source="sBdB1PflQOcZhWk-Nyzg-12" target="sBdB1PflQOcZhWk-Nyzg-16" edge="1">
          <mxGeometry relative="1" as="geometry" />
        </mxCell>
        <mxCell id="sBdB1PflQOcZhWk-Nyzg-12" value="set access token to cookie" style="whiteSpace=wrap;html=1;rounded=0;" parent="1" vertex="1">
          <mxGeometry x="250" y="300" width="120" height="60" as="geometry" />
        </mxCell>
        <mxCell id="sBdB1PflQOcZhWk-Nyzg-19" value="" style="edgeStyle=orthogonalEdgeStyle;rounded=0;orthogonalLoop=1;jettySize=auto;html=1;" parent="1" source="sBdB1PflQOcZhWk-Nyzg-16" target="sBdB1PflQOcZhWk-Nyzg-18" edge="1">
          <mxGeometry relative="1" as="geometry" />
        </mxCell>
        <mxCell id="sBdB1PflQOcZhWk-Nyzg-16" value="set role to cookie" style="whiteSpace=wrap;html=1;rounded=0;" parent="1" vertex="1">
          <mxGeometry x="250" y="460" width="120" height="60" as="geometry" />
        </mxCell>
        <mxCell id="sBdB1PflQOcZhWk-Nyzg-26" value="no" style="edgeStyle=orthogonalEdgeStyle;rounded=0;orthogonalLoop=1;jettySize=auto;html=1;" parent="1" source="sBdB1PflQOcZhWk-Nyzg-18" target="sBdB1PflQOcZhWk-Nyzg-25" edge="1">
          <mxGeometry relative="1" as="geometry" />
        </mxCell>
        <mxCell id="sBdB1PflQOcZhWk-Nyzg-37" value="yes" style="edgeStyle=orthogonalEdgeStyle;rounded=0;orthogonalLoop=1;jettySize=auto;html=1;" parent="1" source="sBdB1PflQOcZhWk-Nyzg-18" target="sBdB1PflQOcZhWk-Nyzg-36" edge="1">
          <mxGeometry relative="1" as="geometry" />
        </mxCell>
        <mxCell id="sBdB1PflQOcZhWk-Nyzg-18" value="&lt;font style=&quot;font-size: 8px;&quot;&gt;role =&amp;nbsp;&lt;/font&gt;&lt;div&gt;&lt;font style=&quot;font-size: 8px;&quot;&gt;system admin&lt;/font&gt;&lt;/div&gt;" style="rhombus;whiteSpace=wrap;html=1;rounded=0;" parent="1" vertex="1">
          <mxGeometry x="460" y="450" width="80" height="80" as="geometry" />
        </mxCell>
        <mxCell id="sBdB1PflQOcZhWk-Nyzg-22" value="" style="edgeStyle=orthogonalEdgeStyle;rounded=0;orthogonalLoop=1;jettySize=auto;html=1;" parent="1" source="sBdB1PflQOcZhWk-Nyzg-20" target="sBdB1PflQOcZhWk-Nyzg-24" edge="1">
          <mxGeometry relative="1" as="geometry">
            <mxPoint x="418.8888888888889" y="60.08333333333337" as="targetPoint" />
          </mxGeometry>
        </mxCell>
        <mxCell id="sBdB1PflQOcZhWk-Nyzg-20" value="start" style="rounded=1;whiteSpace=wrap;html=1;arcSize=50;" parent="1" vertex="1">
          <mxGeometry x="90" y="30" width="120" height="60" as="geometry" />
        </mxCell>
        <mxCell id="sBdB1PflQOcZhWk-Nyzg-23" value="yes" style="edgeStyle=orthogonalEdgeStyle;rounded=0;orthogonalLoop=1;jettySize=auto;html=1;" parent="1" source="sBdB1PflQOcZhWk-Nyzg-24" target="sBdB1PflQOcZhWk-Nyzg-18" edge="1">
          <mxGeometry relative="1" as="geometry">
            <mxPoint x="500.0833333333335" y="108.69999999999993" as="sourcePoint" />
          </mxGeometry>
        </mxCell>
        <mxCell id="JxuncCp9r1p_kjJ1qud--1" value="no" style="edgeStyle=orthogonalEdgeStyle;rounded=0;orthogonalLoop=1;jettySize=auto;html=1;" edge="1" parent="1" source="sBdB1PflQOcZhWk-Nyzg-24" target="t8ty29ZdIok1LaCOHxEX-3">
          <mxGeometry relative="1" as="geometry" />
        </mxCell>
        <mxCell id="sBdB1PflQOcZhWk-Nyzg-24" value="&lt;span style=&quot;font-size: 8px;&quot;&gt;have access token&lt;/span&gt;&lt;div&gt;&lt;span style=&quot;font-size: 8px;&quot;&gt;&amp;nbsp;and role&lt;/span&gt;&lt;div&gt;&lt;span style=&quot;font-size: 8px;&quot;&gt;incookie&lt;/span&gt;&lt;/div&gt;&lt;/div&gt;" style="rhombus;whiteSpace=wrap;html=1;rounded=0;" parent="1" vertex="1">
          <mxGeometry x="440" y="20" width="120" height="80" as="geometry" />
        </mxCell>
        <mxCell id="sBdB1PflQOcZhWk-Nyzg-28" value="no" style="edgeStyle=orthogonalEdgeStyle;rounded=0;orthogonalLoop=1;jettySize=auto;html=1;" parent="1" source="sBdB1PflQOcZhWk-Nyzg-25" target="sBdB1PflQOcZhWk-Nyzg-27" edge="1">
          <mxGeometry relative="1" as="geometry" />
        </mxCell>
        <mxCell id="sBdB1PflQOcZhWk-Nyzg-39" value="yes" style="edgeStyle=orthogonalEdgeStyle;rounded=0;orthogonalLoop=1;jettySize=auto;html=1;" parent="1" source="sBdB1PflQOcZhWk-Nyzg-25" target="sBdB1PflQOcZhWk-Nyzg-38" edge="1">
          <mxGeometry relative="1" as="geometry" />
        </mxCell>
        <mxCell id="sBdB1PflQOcZhWk-Nyzg-25" value="&lt;font style=&quot;font-size: 8px;&quot;&gt;role =&amp;nbsp;&lt;/font&gt;&lt;div&gt;&lt;font style=&quot;font-size: 8px;&quot;&gt;basetype admin&lt;/font&gt;&lt;/div&gt;" style="rhombus;whiteSpace=wrap;html=1;rounded=0;" parent="1" vertex="1">
          <mxGeometry x="620" y="450" width="80" height="80" as="geometry" />
        </mxCell>
        <mxCell id="sBdB1PflQOcZhWk-Nyzg-30" value="no" style="edgeStyle=orthogonalEdgeStyle;rounded=0;orthogonalLoop=1;jettySize=auto;html=1;" parent="1" source="sBdB1PflQOcZhWk-Nyzg-27" target="sBdB1PflQOcZhWk-Nyzg-29" edge="1">
          <mxGeometry relative="1" as="geometry" />
        </mxCell>
        <mxCell id="sBdB1PflQOcZhWk-Nyzg-41" value="yes" style="edgeStyle=orthogonalEdgeStyle;rounded=0;orthogonalLoop=1;jettySize=auto;html=1;" parent="1" source="sBdB1PflQOcZhWk-Nyzg-27" target="sBdB1PflQOcZhWk-Nyzg-40" edge="1">
          <mxGeometry relative="1" as="geometry" />
        </mxCell>
        <mxCell id="sBdB1PflQOcZhWk-Nyzg-27" value="&lt;font style=&quot;font-size: 8px;&quot;&gt;role =&amp;nbsp;&lt;/font&gt;&lt;div&gt;&lt;font style=&quot;font-size: 8px;&quot;&gt;org admin&lt;/font&gt;&lt;/div&gt;" style="rhombus;whiteSpace=wrap;html=1;rounded=0;" parent="1" vertex="1">
          <mxGeometry x="780" y="450" width="80" height="80" as="geometry" />
        </mxCell>
        <mxCell id="sBdB1PflQOcZhWk-Nyzg-32" value="no" style="edgeStyle=orthogonalEdgeStyle;rounded=0;orthogonalLoop=1;jettySize=auto;html=1;" parent="1" source="sBdB1PflQOcZhWk-Nyzg-29" target="sBdB1PflQOcZhWk-Nyzg-31" edge="1">
          <mxGeometry relative="1" as="geometry" />
        </mxCell>
        <mxCell id="sBdB1PflQOcZhWk-Nyzg-43" value="yes" style="edgeStyle=orthogonalEdgeStyle;rounded=0;orthogonalLoop=1;jettySize=auto;html=1;" parent="1" source="sBdB1PflQOcZhWk-Nyzg-29" target="sBdB1PflQOcZhWk-Nyzg-42" edge="1">
          <mxGeometry relative="1" as="geometry" />
        </mxCell>
        <mxCell id="sBdB1PflQOcZhWk-Nyzg-29" value="&lt;font style=&quot;font-size: 8px;&quot;&gt;role =&amp;nbsp;&lt;/font&gt;&lt;div&gt;&lt;font style=&quot;font-size: 8px;&quot;&gt;hr admin&lt;/font&gt;&lt;/div&gt;" style="rhombus;whiteSpace=wrap;html=1;rounded=0;" parent="1" vertex="1">
          <mxGeometry x="780" y="290" width="80" height="80" as="geometry" />
        </mxCell>
        <mxCell id="sBdB1PflQOcZhWk-Nyzg-34" value="no" style="edgeStyle=orthogonalEdgeStyle;rounded=0;orthogonalLoop=1;jettySize=auto;html=1;" parent="1" source="sBdB1PflQOcZhWk-Nyzg-31" target="sBdB1PflQOcZhWk-Nyzg-33" edge="1">
          <mxGeometry relative="1" as="geometry" />
        </mxCell>
        <mxCell id="sBdB1PflQOcZhWk-Nyzg-45" value="yes" style="edgeStyle=orthogonalEdgeStyle;rounded=0;orthogonalLoop=1;jettySize=auto;html=1;" parent="1" source="sBdB1PflQOcZhWk-Nyzg-31" target="sBdB1PflQOcZhWk-Nyzg-44" edge="1">
          <mxGeometry relative="1" as="geometry" />
        </mxCell>
        <mxCell id="sBdB1PflQOcZhWk-Nyzg-31" value="&lt;font style=&quot;font-size: 8px;&quot;&gt;role =&amp;nbsp;&lt;/font&gt;&lt;div&gt;&lt;span style=&quot;font-size: 8px;&quot;&gt;person user&lt;/span&gt;&lt;/div&gt;" style="rhombus;whiteSpace=wrap;html=1;rounded=0;" parent="1" vertex="1">
          <mxGeometry x="780" y="150" width="80" height="80" as="geometry" />
        </mxCell>
        <mxCell id="sBdB1PflQOcZhWk-Nyzg-47" value="yes" style="edgeStyle=orthogonalEdgeStyle;rounded=0;orthogonalLoop=1;jettySize=auto;html=1;" parent="1" source="sBdB1PflQOcZhWk-Nyzg-33" target="sBdB1PflQOcZhWk-Nyzg-46" edge="1">
          <mxGeometry relative="1" as="geometry" />
        </mxCell>
        <mxCell id="t8ty29ZdIok1LaCOHxEX-4" value="no" style="edgeStyle=orthogonalEdgeStyle;rounded=0;orthogonalLoop=1;jettySize=auto;html=1;" parent="1" source="sBdB1PflQOcZhWk-Nyzg-33" target="t8ty29ZdIok1LaCOHxEX-3" edge="1">
          <mxGeometry relative="1" as="geometry" />
        </mxCell>
        <mxCell id="sBdB1PflQOcZhWk-Nyzg-33" value="&lt;font style=&quot;font-size: 8px;&quot;&gt;role =&amp;nbsp;&lt;/font&gt;&lt;div&gt;&lt;span style=&quot;font-size: 8px;&quot;&gt;org user&lt;/span&gt;&lt;/div&gt;" style="rhombus;whiteSpace=wrap;html=1;rounded=0;" parent="1" vertex="1">
          <mxGeometry x="780" y="20" width="80" height="80" as="geometry" />
        </mxCell>
        <mxCell id="sBdB1PflQOcZhWk-Nyzg-49" style="edgeStyle=orthogonalEdgeStyle;rounded=0;orthogonalLoop=1;jettySize=auto;html=1;" parent="1" source="sBdB1PflQOcZhWk-Nyzg-36" target="sBdB1PflQOcZhWk-Nyzg-48" edge="1">
          <mxGeometry relative="1" as="geometry">
            <Array as="points">
              <mxPoint x="500" y="710" />
            </Array>
          </mxGeometry>
        </mxCell>
        <mxCell id="sBdB1PflQOcZhWk-Nyzg-36" value="redirect to system admin home" style="whiteSpace=wrap;html=1;rounded=0;" parent="1" vertex="1">
          <mxGeometry x="440" y="620" width="120" height="60" as="geometry" />
        </mxCell>
        <mxCell id="sBdB1PflQOcZhWk-Nyzg-50" style="edgeStyle=orthogonalEdgeStyle;rounded=0;orthogonalLoop=1;jettySize=auto;html=1;" parent="1" source="sBdB1PflQOcZhWk-Nyzg-38" target="sBdB1PflQOcZhWk-Nyzg-48" edge="1">
          <mxGeometry relative="1" as="geometry">
            <Array as="points">
              <mxPoint x="660" y="710" />
            </Array>
          </mxGeometry>
        </mxCell>
        <mxCell id="sBdB1PflQOcZhWk-Nyzg-38" value="redirect to basetype admin home" style="whiteSpace=wrap;html=1;rounded=0;" parent="1" vertex="1">
          <mxGeometry x="600" y="620" width="120" height="60" as="geometry" />
        </mxCell>
        <mxCell id="sBdB1PflQOcZhWk-Nyzg-51" style="edgeStyle=orthogonalEdgeStyle;rounded=0;orthogonalLoop=1;jettySize=auto;html=1;" parent="1" source="sBdB1PflQOcZhWk-Nyzg-40" target="sBdB1PflQOcZhWk-Nyzg-48" edge="1">
          <mxGeometry relative="1" as="geometry">
            <Array as="points">
              <mxPoint x="820" y="710" />
            </Array>
          </mxGeometry>
        </mxCell>
        <mxCell id="sBdB1PflQOcZhWk-Nyzg-40" value="redirect to org admin home" style="whiteSpace=wrap;html=1;rounded=0;" parent="1" vertex="1">
          <mxGeometry x="760" y="620" width="120" height="60" as="geometry" />
        </mxCell>
        <mxCell id="sBdB1PflQOcZhWk-Nyzg-52" style="edgeStyle=orthogonalEdgeStyle;rounded=0;orthogonalLoop=1;jettySize=auto;html=1;" parent="1" source="sBdB1PflQOcZhWk-Nyzg-42" target="sBdB1PflQOcZhWk-Nyzg-48" edge="1">
          <mxGeometry relative="1" as="geometry">
            <Array as="points">
              <mxPoint x="1100" y="330" />
            </Array>
          </mxGeometry>
        </mxCell>
        <mxCell id="sBdB1PflQOcZhWk-Nyzg-42" value="redirect to hr admin home" style="whiteSpace=wrap;html=1;rounded=0;" parent="1" vertex="1">
          <mxGeometry x="920" y="300" width="120" height="60" as="geometry" />
        </mxCell>
        <mxCell id="sBdB1PflQOcZhWk-Nyzg-53" style="edgeStyle=orthogonalEdgeStyle;rounded=0;orthogonalLoop=1;jettySize=auto;html=1;" parent="1" source="sBdB1PflQOcZhWk-Nyzg-44" target="sBdB1PflQOcZhWk-Nyzg-48" edge="1">
          <mxGeometry relative="1" as="geometry">
            <Array as="points">
              <mxPoint x="1100" y="190" />
            </Array>
          </mxGeometry>
        </mxCell>
        <mxCell id="sBdB1PflQOcZhWk-Nyzg-44" value="redirect to person user home" style="whiteSpace=wrap;html=1;rounded=0;" parent="1" vertex="1">
          <mxGeometry x="920" y="160" width="120" height="60" as="geometry" />
        </mxCell>
        <mxCell id="sBdB1PflQOcZhWk-Nyzg-54" style="edgeStyle=orthogonalEdgeStyle;rounded=0;orthogonalLoop=1;jettySize=auto;html=1;" parent="1" source="sBdB1PflQOcZhWk-Nyzg-46" target="sBdB1PflQOcZhWk-Nyzg-48" edge="1">
          <mxGeometry relative="1" as="geometry">
            <Array as="points">
              <mxPoint x="1100" y="60" />
            </Array>
          </mxGeometry>
        </mxCell>
        <mxCell id="sBdB1PflQOcZhWk-Nyzg-46" value="redirect to org user home" style="whiteSpace=wrap;html=1;rounded=0;" parent="1" vertex="1">
          <mxGeometry x="920" y="30" width="120" height="60" as="geometry" />
        </mxCell>
        <mxCell id="sBdB1PflQOcZhWk-Nyzg-48" value="end" style="rounded=1;whiteSpace=wrap;html=1;arcSize=50;" parent="1" vertex="1">
          <mxGeometry x="1040" y="680" width="120" height="60" as="geometry" />
        </mxCell>
        <mxCell id="t8ty29ZdIok1LaCOHxEX-5" style="edgeStyle=orthogonalEdgeStyle;rounded=0;orthogonalLoop=1;jettySize=auto;html=1;" parent="1" source="t8ty29ZdIok1LaCOHxEX-3" target="sBdB1PflQOcZhWk-Nyzg-1" edge="1">
          <mxGeometry relative="1" as="geometry">
            <Array as="points">
              <mxPoint x="660" y="10" />
              <mxPoint x="60" y="10" />
              <mxPoint x="60" y="120" />
              <mxPoint x="150" y="120" />
            </Array>
          </mxGeometry>
        </mxCell>
        <mxCell id="t8ty29ZdIok1LaCOHxEX-3" value="logout" style="shape=process;whiteSpace=wrap;html=1;backgroundOutline=1;" parent="1" vertex="1">
          <mxGeometry x="600" y="30" width="120" height="60" as="geometry" />
        </mxCell>
      </root>
    </mxGraphModel>
  </diagram>
  <diagram id="IyEPy09d5Tjs3t0yM1tX" name="2 logout">
    <mxGraphModel dx="1042" dy="626" grid="1" gridSize="10" guides="1" tooltips="1" connect="1" arrows="1" fold="1" page="1" pageScale="1" pageWidth="827" pageHeight="1169" math="0" shadow="0">
      <root>
        <mxCell id="0" />
        <mxCell id="1" parent="0" />
        <mxCell id="SDNNVEiZ93708vtlGCOW-5" value="" style="edgeStyle=orthogonalEdgeStyle;rounded=0;orthogonalLoop=1;jettySize=auto;html=1;" parent="1" source="SDNNVEiZ93708vtlGCOW-1" target="SDNNVEiZ93708vtlGCOW-4" edge="1">
          <mxGeometry relative="1" as="geometry" />
        </mxCell>
        <mxCell id="SDNNVEiZ93708vtlGCOW-1" value="start" style="rounded=1;whiteSpace=wrap;html=1;arcSize=50;" parent="1" vertex="1">
          <mxGeometry x="20" y="40" width="120" height="60" as="geometry" />
        </mxCell>
        <mxCell id="SDNNVEiZ93708vtlGCOW-2" value="end" style="rounded=1;whiteSpace=wrap;html=1;arcSize=50;" parent="1" vertex="1">
          <mxGeometry x="780" y="40" width="120" height="60" as="geometry" />
        </mxCell>
        <mxCell id="7bMEVbd0e76OcyLWx-bo-2" value="" style="edgeStyle=orthogonalEdgeStyle;rounded=0;orthogonalLoop=1;jettySize=auto;html=1;" parent="1" source="SDNNVEiZ93708vtlGCOW-4" target="7bMEVbd0e76OcyLWx-bo-1" edge="1">
          <mxGeometry relative="1" as="geometry" />
        </mxCell>
        <mxCell id="SDNNVEiZ93708vtlGCOW-4" value="delete access token from cookie" style="rounded=0;whiteSpace=wrap;html=1;" parent="1" vertex="1">
          <mxGeometry x="210" y="40" width="120" height="60" as="geometry" />
        </mxCell>
        <mxCell id="7bMEVbd0e76OcyLWx-bo-4" value="" style="edgeStyle=orthogonalEdgeStyle;rounded=0;orthogonalLoop=1;jettySize=auto;html=1;" parent="1" source="7bMEVbd0e76OcyLWx-bo-1" target="7bMEVbd0e76OcyLWx-bo-3" edge="1">
          <mxGeometry relative="1" as="geometry" />
        </mxCell>
        <mxCell id="7bMEVbd0e76OcyLWx-bo-1" value="delete role from cookie" style="whiteSpace=wrap;html=1;rounded=0;" parent="1" vertex="1">
          <mxGeometry x="400" y="40" width="120" height="60" as="geometry" />
        </mxCell>
        <mxCell id="7bMEVbd0e76OcyLWx-bo-5" value="" style="edgeStyle=orthogonalEdgeStyle;rounded=0;orthogonalLoop=1;jettySize=auto;html=1;" parent="1" source="7bMEVbd0e76OcyLWx-bo-3" target="SDNNVEiZ93708vtlGCOW-2" edge="1">
          <mxGeometry relative="1" as="geometry" />
        </mxCell>
        <mxCell id="7bMEVbd0e76OcyLWx-bo-3" value="redirect to login page" style="whiteSpace=wrap;html=1;rounded=0;" parent="1" vertex="1">
          <mxGeometry x="590" y="40" width="120" height="60" as="geometry" />
        </mxCell>
      </root>
    </mxGraphModel>
  </diagram>
  <diagram id="NVeuOapqImXrufSv1eE_" name="3 check auth">
    <mxGraphModel dx="1042" dy="626" grid="1" gridSize="10" guides="1" tooltips="1" connect="1" arrows="1" fold="1" page="1" pageScale="1" pageWidth="827" pageHeight="1169" math="0" shadow="0">
      <root>
        <mxCell id="0" />
        <mxCell id="1" parent="0" />
        <mxCell id="L8ugp16GrH1D--8rCleF-4" value="" style="edgeStyle=orthogonalEdgeStyle;rounded=0;orthogonalLoop=1;jettySize=auto;html=1;" parent="1" source="L8ugp16GrH1D--8rCleF-1" target="L8ugp16GrH1D--8rCleF-9" edge="1">
          <mxGeometry relative="1" as="geometry">
            <mxPoint x="210" y="50" as="targetPoint" />
          </mxGeometry>
        </mxCell>
        <mxCell id="L8ugp16GrH1D--8rCleF-1" value="start" style="rounded=1;whiteSpace=wrap;html=1;arcSize=50;" parent="1" vertex="1">
          <mxGeometry x="10" y="20" width="120" height="60" as="geometry" />
        </mxCell>
        <mxCell id="L8ugp16GrH1D--8rCleF-2" value="end" style="rounded=1;whiteSpace=wrap;html=1;arcSize=50;" parent="1" vertex="1">
          <mxGeometry x="350" y="20" width="120" height="60" as="geometry" />
        </mxCell>
        <mxCell id="WgCC5w8E_4F-hnxfaGMx-2" value="no" style="edgeStyle=orthogonalEdgeStyle;rounded=0;orthogonalLoop=1;jettySize=auto;html=1;" parent="1" source="L8ugp16GrH1D--8rCleF-9" target="WgCC5w8E_4F-hnxfaGMx-1" edge="1">
          <mxGeometry relative="1" as="geometry" />
        </mxCell>
        <mxCell id="WgCC5w8E_4F-hnxfaGMx-3" value="yes" style="edgeStyle=orthogonalEdgeStyle;rounded=0;orthogonalLoop=1;jettySize=auto;html=1;" parent="1" source="L8ugp16GrH1D--8rCleF-9" target="L8ugp16GrH1D--8rCleF-2" edge="1">
          <mxGeometry relative="1" as="geometry" />
        </mxCell>
        <mxCell id="L8ugp16GrH1D--8rCleF-9" value="&lt;font style=&quot;font-size: 10px;&quot;&gt;have access token&lt;/font&gt;" style="rhombus;whiteSpace=wrap;html=1;" parent="1" vertex="1">
          <mxGeometry x="200" y="10" width="80" height="80" as="geometry" />
        </mxCell>
        <mxCell id="pKZZvW6dXSfghdyMqer6-1" style="edgeStyle=orthogonalEdgeStyle;rounded=0;orthogonalLoop=1;jettySize=auto;html=1;" edge="1" parent="1" source="WgCC5w8E_4F-hnxfaGMx-1" target="L8ugp16GrH1D--8rCleF-2">
          <mxGeometry relative="1" as="geometry" />
        </mxCell>
        <mxCell id="WgCC5w8E_4F-hnxfaGMx-1" value="logout" style="shape=process;whiteSpace=wrap;html=1;backgroundOutline=1;" parent="1" vertex="1">
          <mxGeometry x="180" y="140" width="120" height="60" as="geometry" />
        </mxCell>
      </root>
    </mxGraphModel>
  </diagram>
  <diagram id="QJ0hygwE4KZqUhxAe8_N" name="4 each role profile">
    <mxGraphModel dx="1042" dy="626" grid="1" gridSize="10" guides="1" tooltips="1" connect="1" arrows="1" fold="1" page="1" pageScale="1" pageWidth="827" pageHeight="1169" math="0" shadow="0">
      <root>
        <mxCell id="0" />
        <mxCell id="1" parent="0" />
        <mxCell id="_kjot9PJowUkDtuQV2nn-4" value="" style="edgeStyle=orthogonalEdgeStyle;rounded=0;orthogonalLoop=1;jettySize=auto;html=1;" parent="1" source="Jpl9grDYXdUXQWpbqFHh-1" target="_kjot9PJowUkDtuQV2nn-3" edge="1">
          <mxGeometry relative="1" as="geometry" />
        </mxCell>
        <mxCell id="Jpl9grDYXdUXQWpbqFHh-1" value="start" style="rounded=1;whiteSpace=wrap;html=1;arcSize=50;" parent="1" vertex="1">
          <mxGeometry x="50" y="40" width="120" height="60" as="geometry" />
        </mxCell>
        <mxCell id="_kjot9PJowUkDtuQV2nn-2" value="end" style="rounded=1;whiteSpace=wrap;html=1;arcSize=50;" parent="1" vertex="1">
          <mxGeometry x="50" y="320" width="120" height="60" as="geometry" />
        </mxCell>
        <mxCell id="uslXd0HS6kCtcz5U3LsL-2" value="" style="edgeStyle=orthogonalEdgeStyle;rounded=0;orthogonalLoop=1;jettySize=auto;html=1;" parent="1" source="_kjot9PJowUkDtuQV2nn-3" target="uslXd0HS6kCtcz5U3LsL-1" edge="1">
          <mxGeometry relative="1" as="geometry" />
        </mxCell>
        <mxCell id="_kjot9PJowUkDtuQV2nn-3" value="press profile button" style="whiteSpace=wrap;html=1;rounded=0;arcSize=50;" parent="1" vertex="1">
          <mxGeometry x="50" y="180" width="120" height="60" as="geometry" />
        </mxCell>
        <mxCell id="uslXd0HS6kCtcz5U3LsL-4" value="" style="edgeStyle=orthogonalEdgeStyle;rounded=0;orthogonalLoop=1;jettySize=auto;html=1;" parent="1" source="uslXd0HS6kCtcz5U3LsL-1" target="uslXd0HS6kCtcz5U3LsL-3" edge="1">
          <mxGeometry relative="1" as="geometry" />
        </mxCell>
        <mxCell id="uslXd0HS6kCtcz5U3LsL-1" value="check auth" style="shape=process;whiteSpace=wrap;html=1;backgroundOutline=1;" parent="1" vertex="1">
          <mxGeometry x="240" y="180" width="120" height="60" as="geometry" />
        </mxCell>
        <mxCell id="8Nni88PaAj0qiFndTbgW-2" value="" style="edgeStyle=orthogonalEdgeStyle;rounded=0;orthogonalLoop=1;jettySize=auto;html=1;" parent="1" source="uslXd0HS6kCtcz5U3LsL-3" target="8Nni88PaAj0qiFndTbgW-1" edge="1">
          <mxGeometry relative="1" as="geometry" />
        </mxCell>
        <mxCell id="uslXd0HS6kCtcz5U3LsL-3" value="use access token to get current profile" style="whiteSpace=wrap;html=1;" parent="1" vertex="1">
          <mxGeometry x="440" y="180" width="120" height="60" as="geometry" />
        </mxCell>
        <mxCell id="b77mej2pZ3dcDblN3zSi-2" value="yes" style="edgeStyle=orthogonalEdgeStyle;rounded=0;orthogonalLoop=1;jettySize=auto;html=1;" parent="1" source="8Nni88PaAj0qiFndTbgW-1" target="b77mej2pZ3dcDblN3zSi-1" edge="1">
          <mxGeometry relative="1" as="geometry" />
        </mxCell>
        <mxCell id="b77mej2pZ3dcDblN3zSi-5" value="no" style="edgeStyle=orthogonalEdgeStyle;rounded=0;orthogonalLoop=1;jettySize=auto;html=1;" parent="1" source="8Nni88PaAj0qiFndTbgW-1" target="b77mej2pZ3dcDblN3zSi-4" edge="1">
          <mxGeometry relative="1" as="geometry" />
        </mxCell>
        <mxCell id="8Nni88PaAj0qiFndTbgW-1" value="is success" style="rhombus;whiteSpace=wrap;html=1;" parent="1" vertex="1">
          <mxGeometry x="460" y="310" width="80" height="80" as="geometry" />
        </mxCell>
        <mxCell id="b77mej2pZ3dcDblN3zSi-7" style="edgeStyle=orthogonalEdgeStyle;rounded=0;orthogonalLoop=1;jettySize=auto;html=1;" parent="1" source="b77mej2pZ3dcDblN3zSi-1" target="_kjot9PJowUkDtuQV2nn-2" edge="1">
          <mxGeometry relative="1" as="geometry">
            <Array as="points">
              <mxPoint x="660" y="420" />
              <mxPoint x="110" y="420" />
            </Array>
          </mxGeometry>
        </mxCell>
        <mxCell id="b77mej2pZ3dcDblN3zSi-1" value="show user profile" style="whiteSpace=wrap;html=1;" parent="1" vertex="1">
          <mxGeometry x="600" y="320" width="120" height="60" as="geometry" />
        </mxCell>
        <mxCell id="b77mej2pZ3dcDblN3zSi-6" style="edgeStyle=orthogonalEdgeStyle;rounded=0;orthogonalLoop=1;jettySize=auto;html=1;" parent="1" source="b77mej2pZ3dcDblN3zSi-4" target="_kjot9PJowUkDtuQV2nn-2" edge="1">
          <mxGeometry relative="1" as="geometry" />
        </mxCell>
        <mxCell id="b77mej2pZ3dcDblN3zSi-4" value="show error" style="whiteSpace=wrap;html=1;" parent="1" vertex="1">
          <mxGeometry x="240" y="320" width="120" height="60" as="geometry" />
        </mxCell>
      </root>
    </mxGraphModel>
  </diagram>
</mxfile>
